# xmcd
#
# Track frame offsets:
# 150
# 14192
# 29339
# 42502
# 58677
# 73189
# 92793
# 107441
# 126480
# 141989
# 157617
# 177348
# 200558
#
# Disc length: 2921 seconds
#
#
# Revision: 3
# Processed by: cddbd v1.5.1PL2 Copyright (c) Steve Scherf et al.
# Submitted via: FreeRIP 2.90 
#
DISCID=bf0b670d
DTITLE=Grupo Minuano - Nosso Balanco Ta Na Moda
DYEAR=2004
DGENRE=Gaúcha
TTITLE0=Vem pra ca neguinha
TTITLE1=La vem ela
TTITLE2=Pra sacudir as muie
TTITLE3=Menina safadinha
TTITLE4=Nosso balanco ta na moda
TTITLE5=Yolanda
TTITLE6=Beijo molhado
TTITLE7=Choraminga gaita
TTITLE8=Gaitero agradao
TTITLE9=Em santa catarina
TTITLE10=Chega de bole-bole
TTITLE11=Nao te esquecerei jamais
TTITLE12=Castelo de sonho
EXTD=YEAR: 2004
EXTT0=
EXTT1=
EXTT2=
EXTT3=
EXTT4=
EXTT5=
EXTT6=
EXTT7=
EXTT8=
EXTT9=
EXTT10=
EXTT11=
EXTT12=
PLAYORDER=
